<?xml version="1.0" standalone="no"?>
<!DOCTYPE svg PUBLIC "-//W3C//DTD SVG 20010904//EN"
 "http://www.w3.org/TR/2001/REC-SVG-20010904/DTD/svg10.dtd">
<svg version="1.0" xmlns="http://www.w3.org/2000/svg"
 width="2000.000000pt" height="1594.000000pt" viewBox="0 0 2000.000000 1594.000000"
 preserveAspectRatio="xMidYMid meet">

<g transform="translate(0.000000,1594.000000) scale(0.100000,-0.100000)"
fill="#DD6B20" stroke="none">
<path d="M12044 13760 c-93 -13 -134 -26 -331 -106 -1045 -423 -1928 -1181
-2503 -2149 -94 -157 -299 -563 -385 -760 -607 -1389 -853 -2028 -1162 -3020
-94 -302 -117 -389 -126 -472 -10 -100 -10 -103 17 -167 37 -85 81 -141 147
-182 152 -96 343 -80 462 38 91 91 93 97 592 1380 249 639 261 665 274 640
151 -290 956 -1799 990 -1856 64 -108 148 -198 219 -233 51 -25 68 -28 157
-28 93 0 104 2 166 33 87 44 140 96 181 179 29 60 33 77 32 143 -1 41 -9 102
-18 135 -9 33 -220 535 -470 1115 l-453 1055 171 27 c786 127 1064 184 1249
254 125 48 205 115 254 214 26 51 28 64 28 175 -1 108 -4 129 -33 212 -44 128
-77 191 -207 393 -160 247 -538 878 -590 985 -49 100 -85 224 -85 294 0 71 24
155 58 208 49 76 177 194 287 265 260 167 659 365 1041 513 275 108 376 175
425 282 79 172 11 358 -151 416 -57 20 -158 27 -236 17z m-1384 -3270 c82
-113 143 -206 137 -208 -27 -5 -682 -70 -685 -67 -6 5 383 485 391 482 5 -1
76 -95 157 -207z"/>
<path d="M11403 12516 c-255 -59 -433 -266 -450 -526 -18 -271 162 -514 434
-584 347 -90 703 193 703 559 0 66 -31 189 -64 252 -116 224 -385 353 -623
299z"/>
<path d="M12340 4930 l0 -1280 115 0 115 0 0 524 c0 497 1 529 21 612 23 99
72 204 121 264 36 44 141 125 198 152 52 25 126 44 227 59 118 16 246 -2 352
-51 86 -40 171 -125 215 -215 29 -59 36 -84 56 -195 6 -32 10 -285 10 -602 l0
-548 115 0 115 0 0 593 c0 543 -2 599 -19 682 -52 245 -180 403 -397 490 -38
15 -89 32 -114 37 -342 68 -674 -31 -850 -253 -21 -27 -40 -45 -44 -42 -3 4
-6 242 -6 530 l0 523 -115 0 -115 0 0 -1280z"/>
<path d="M4260 5666 c0 -168 -2 -195 -16 -200 -9 -3 -83 -6 -165 -6 l-150 0 3
-96 3 -96 150 1 c83 1 155 -2 162 -7 9 -6 13 -158 15 -632 3 -619 4 -626 26
-684 34 -90 67 -141 126 -192 85 -72 181 -109 320 -120 124 -11 326 40 399
100 l29 23 -37 74 c-21 41 -39 76 -41 78 -2 3 -22 -5 -44 -18 -111 -62 -239
-77 -347 -40 -112 37 -173 112 -193 234 -6 34 -10 301 -10 616 0 510 1 557 17
563 9 4 134 6 277 6 l261 -1 3 95 3 96 -278 2 -278 3 -3 198 -2 197 -115 0
-115 0 0 -194z"/>
<path d="M9108 5663 l-3 -198 -163 -3 -163 -2 3 -96 3 -96 150 1 c83 1 155 -2
162 -7 9 -6 13 -160 16 -627 3 -668 1 -633 57 -758 28 -62 125 -159 187 -187
67 -31 144 -50 227 -56 123 -11 325 40 399 99 l29 23 -36 77 c-20 42 -41 77
-46 77 -5 0 -24 -9 -43 -20 -131 -77 -299 -79 -417 -5 -49 31 -73 61 -101 125
l-24 55 -3 594 c-3 484 -1 596 10 602 7 5 132 9 278 8 l265 0 3 95 3 96 -278
2 -278 3 -3 198 -2 197 -115 0 -115 0 -2 -197z"/>
<path d="M6475 5473 c-132 -8 -288 -52 -377 -105 -78 -46 -179 -150 -211 -214
-11 -24 -25 -44 -29 -44 -4 0 -8 79 -8 175 l0 176 -112 -3 -113 -3 -3 -902 -2
-903 119 0 120 0 3 553 c4 548 4 553 27 622 70 210 169 319 348 385 71 26 108
34 191 38 l102 5 0 113 c0 63 -1 113 -2 112 -2 -1 -25 -3 -53 -5z"/>
<path d="M2855 5463 c-185 -26 -376 -137 -454 -263 -46 -75 -75 -189 -68 -270
8 -99 42 -190 92 -247 102 -117 246 -175 579 -233 347 -61 471 -123 501 -254
29 -125 -28 -242 -145 -300 -99 -50 -164 -61 -340 -60 -152 1 -174 3 -280 32
-120 32 -270 96 -325 138 -17 13 -35 24 -38 24 -3 0 -29 -39 -57 -87 l-52 -88
29 -23 c71 -58 246 -133 387 -164 89 -20 128 -23 321 -23 260 1 324 12 460 79
151 74 240 183 274 331 15 71 13 128 -11 218 -23 88 -56 140 -127 195 -88 70
-171 98 -496 167 -284 61 -314 69 -376 101 -36 19 -80 50 -98 68 -91 93 -85
253 13 348 51 50 149 96 231 108 119 19 288 15 398 -8 97 -21 218 -68 269
-103 14 -11 31 -19 37 -19 6 0 22 22 35 49 13 28 34 66 46 87 23 36 23 37 4
51 -66 50 -242 112 -388 138 -82 14 -340 19 -421 8z"/>
<path d="M7485 5455 c-308 -58 -563 -293 -654 -600 -48 -164 -52 -389 -11
-550 39 -154 134 -320 241 -421 102 -95 260 -182 397 -217 75 -19 113 -22 282
-21 170 0 205 3 275 22 89 25 203 76 268 120 53 37 147 121 147 132 0 5 -27
40 -61 79 l-61 70 -68 -57 c-76 -64 -185 -123 -275 -149 -89 -25 -318 -29
-410 -7 -178 43 -292 116 -401 255 -52 68 -109 195 -118 264 -4 28 -9 62 -12
77 l-6 28 764 2 763 3 3 50 c5 72 -16 239 -40 320 -24 81 -75 186 -128 265
-46 68 -157 174 -227 219 -79 49 -209 101 -293 117 -94 17 -283 16 -375 -1z
m298 -189 c160 -26 257 -77 364 -189 99 -105 155 -224 176 -379 l6 -38 -655 0
c-360 0 -654 1 -654 3 0 1 6 38 14 83 22 121 78 235 162 324 112 119 209 171
364 195 112 17 120 17 223 1z"/>
<path d="M10953 5455 c-95 -18 -243 -78 -326 -132 -144 -95 -231 -197 -311
-364 -63 -132 -81 -226 -80 -419 1 -133 5 -168 27 -251 92 -340 372 -589 721
-640 116 -17 362 -6 451 20 101 30 230 98 293 156 55 50 132 140 132 154 0 4
-36 34 -81 65 l-81 57 -54 -59 c-71 -79 -164 -138 -274 -173 -79 -26 -105 -29
-214 -29 -111 0 -134 3 -217 30 -114 38 -188 79 -258 145 -144 135 -212 309
-212 540 0 145 20 239 76 353 126 255 415 400 710 356 116 -17 143 -26 223
-70 84 -45 143 -93 179 -144 15 -22 32 -40 37 -40 15 0 165 104 166 115 0 20
-91 126 -148 171 -84 66 -184 116 -302 150 -77 22 -361 28 -457 9z"/>
<path d="M15204 5455 c-86 -15 -228 -74 -306 -127 -78 -52 -187 -161 -233
-233 -234 -364 -198 -869 84 -1177 96 -105 269 -207 426 -250 110 -30 429 -33
545 -5 114 27 282 114 363 187 37 34 67 66 67 72 0 5 -28 41 -61 79 l-62 69
-57 -50 c-85 -73 -163 -117 -270 -150 -85 -27 -108 -30 -228 -30 -102 0 -153
5 -215 21 -284 72 -470 285 -511 582 l-5 37 765 0 764 0 0 68 c-1 341 -137
615 -387 782 -92 61 -207 109 -303 126 -94 17 -282 16 -376 -1z m359 -200
c104 -22 191 -70 280 -154 79 -75 139 -165 165 -246 13 -42 42 -169 42 -186 0
-5 -255 -9 -654 -9 l-655 0 6 38 c11 78 34 154 69 228 53 112 168 226 284 283
139 68 288 83 463 46z"/>
<path d="M17481 5449 c-111 -23 -173 -48 -254 -102 -61 -41 -139 -127 -178
-196 -12 -22 -26 -38 -31 -35 -4 3 -8 81 -8 175 l0 169 -110 0 -110 0 0 -905
0 -905 115 0 115 0 0 503 c0 523 4 579 46 712 20 61 76 156 122 207 96 106
236 168 400 176 l102 5 0 108 0 109 -57 -1 c-32 0 -100 -9 -152 -20z"/>
</g>
</svg>
